<?xml version="1.0" encoding="UTF-8" standalone="no"?>
<!-- Created with Inkscape (http://www.inkscape.org/) -->

<svg
   xmlns:dc="http://purl.org/dc/elements/1.1/"
   xmlns:cc="http://creativecommons.org/ns#"
   xmlns:rdf="http://www.w3.org/1999/02/22-rdf-syntax-ns#"
   xmlns:svg="http://www.w3.org/2000/svg"
   xmlns="http://www.w3.org/2000/svg"
   xmlns:sodipodi="http://sodipodi.sourceforge.net/DTD/sodipodi-0.dtd"
   xmlns:inkscape="http://www.inkscape.org/namespaces/inkscape"
   id="svg3015"
   version="1.1"
   inkscape:version="0.48.2 r9819"
   width="886"
   height="529"
   sodipodi:docname="wind-blowing-base.svg">
  <metadata
     id="metadata3021">
    <rdf:RDF>
      <cc:Work
         rdf:about="">
        <dc:format>image/svg+xml</dc:format>
        <dc:type
           rdf:resource="http://purl.org/dc/dcmitype/StillImage" />
        <dc:title />
      </cc:Work>
    </rdf:RDF>
  </metadata>
  <defs
     id="defs3019">
    <inkscape:path-effect
       effect="spiro"
       id="path-effect2991"
       is_visible="true" />
    <inkscape:path-effect
       effect="skeletal"
       id="path-effect2987"
       is_visible="true"
       pattern="M 0,0 0,10 10,5 z"
       copytype="single_stretched"
       prop_scale="1"
       scale_y_rel="false"
       spacing="0"
       normal_offset="0"
       tang_offset="0"
       prop_units="false"
       vertical_pattern="false"
       fuse_tolerance="0" />
    <inkscape:path-effect
       effect="spiro"
       id="path-effect2985"
       is_visible="true" />
  </defs>
  <sodipodi:namedview
     pagecolor="#ffffff"
     bordercolor="#666666"
     borderopacity="1"
     objecttolerance="10"
     gridtolerance="10"
     guidetolerance="10"
     inkscape:pageopacity="0"
     inkscape:pageshadow="2"
     inkscape:window-width="1216"
     inkscape:window-height="746"
     id="namedview3017"
     showgrid="false"
     inkscape:zoom="0.24858223"
     inkscape:cx="-985.259"
     inkscape:cy="1.20246"
     inkscape:window-x="64"
     inkscape:window-y="0"
     inkscape:window-maximized="1"
     inkscape:current-layer="svg3015" />
  <path
     style="fill:#204a87;stroke:none"
     d="m 107.91506,507.50655 c -12.057664,-1.40429 -23.31109,-6.26829 -28.387449,-12.26975 -1.480514,-1.75031 -3.844468,-5.65739 -5.25323,-8.68239 -2.230635,-4.78979 -2.563938,-6.85586 -2.581156,-16 -0.02521,-13.39016 1.897488,-19.39466 8.336519,-26.03454 9.785111,-10.09034 26.671666,-10.63645 38.289646,-1.23828 5.08238,4.1113 7.12254,7.36267 6.17283,9.83757 -0.72165,1.88059 -4.39964,3.43303 -8.15188,3.44083 -5.11183,0.0106 -10.60603,2.21555 -14.01498,5.6245 -3.157639,3.15764 -3.382879,3.7882 -2.896029,8.10747 0.597339,5.29965 2.746229,7.61827 8.556129,9.23196 11.1633,3.1006 27.25538,-1.00842 37.96538,-9.69424 12.95309,-10.50495 20.51344,-27.68201 32.72705,-74.3556 12.81508,-48.97206 16.1741,-59.43078 24.22247,-75.41967 7.45502,-14.81013 15.363,-23.3932 28.79206,-31.24997 9.73544,-5.6958 22.40715,-9.14374 39.13168,-10.64766 8.96008,-0.80571 9.99822,0.3377 11.47843,12.64246 1.54274,12.82469 1.40733,12.98194 -12.57956,14.60779 -10.11148,1.17537 -18.10857,3.30593 -24.15469,6.4352 -11.65626,6.0329 -22.94094,27.32117 -32.29036,60.91499 -2.18846,7.86345 -6.96205,25.00936 -10.60798,38.10201 -7.93039,28.47832 -13.58038,45.24199 -17.76026,52.69518 -14.86522,26.50631 -33.41508,41.06095 -56.08675,44.0069 -8.15521,1.05969 -11.41204,1.05116 -20.90787,-0.0548 z m 560.86667,-34.09846 c -14.2103,-1.40945 -25.17527,-8.45901 -30.27699,-19.46557 -2.99269,-6.45649 -4.48939,-17.88307 -3.29979,-25.19226 2.19073,-13.46037 14.68815,-22.46268 31.41227,-22.62732 6.7528,-0.0665 6.99189,0.0159 7.96501,2.74392 0.9253,2.59398 0.63692,3.14878 -3.71237,7.14212 -5.81138,5.33577 -8.6633,11.33317 -8.69245,18.27965 -0.0183,4.35981 0.45438,5.76735 2.82939,8.42544 2.47009,2.76451 3.64437,3.24858 8.78217,3.62021 12.76938,0.92366 16.87014,-3.64399 16.8603,-18.77987 -0.006,-8.72752 -0.26517,-9.99643 -3.19128,-15.60517 -4.38104,-8.39751 -11.97722,-16.386 -21.7896,-22.91493 -17.98042,-11.96376 -33.59558,-17.48048 -99.01294,-34.98054 -33.76074,-9.03147 -43.18396,-12.14051 -59.77047,-19.7203 -8.01576,-3.66308 -8.85437,-5.44774 -5.80221,-12.34767 5.90675,-13.35318 6.80208,-26.67955 2.58979,-38.54713 -4.33225,-12.20552 -4.38647,-11.46982 1.23151,-16.71022 6.77771,-6.32217 14.30027,-10.67548 24.35218,-14.09261 14.70307,-4.99828 24.05615,-5.98892 66.78119,-7.0732 42.60213,-1.08116 51.63489,-1.81972 68.91185,-5.63453 24.77982,-5.47146 39.06368,-14.59766 44.26261,-28.28014 3.97255,-10.45491 3.40957,-20.25289 -1.35548,-23.59046 -2.72965,-1.91191 -11.66659,-1.96213 -16.1455,-0.0907 -3.50724,1.46541 -12.05246,9.32002 -14.64633,13.46262 -1.6272,2.59876 -6.18504,3.25707 -8.23414,1.18929 -1.65529,-1.67038 -1.18206,-17.80949 0.71319,-24.3225 3.97656,-13.66546 14.85781,-20.33254 31.95723,-19.58058 19.14445,0.84188 34.64671,14.41876 37.59201,32.92309 1.78758,11.23077 -1.73681,29.57992 -7.31563,38.08766 l -1.52658,2.32804 9.38727,-0.34431 c 6.31941,-0.23179 11.05443,0.1444 14.48858,1.1511 l 5.10132,1.4954 -4.12579,-4.47595 c -8.0859,-8.77216 -11.72882,-21.88912 -8.89257,-32.0192 2.74529,-9.80527 12.9718,-16.30706 25.64891,-16.30706 4.63508,0 5.48131,0.31029 6.41099,2.35071 0.87471,1.91976 0.58877,3.30246 -1.55967,7.54221 -2.99604,5.91241 -3.61349,14.13058 -1.40649,18.72029 4.45835,9.27166 26.39553,12.57006 38.7782,5.83056 10.7062,-5.82704 17.04831,-16.32401 17.06426,-28.24343 0.0144,-10.74376 -3.23786,-15.78272 -11.11632,-17.2234 -7.6797,-1.40433 -11.87391,1.50104 -11.87391,8.22518 0,3.3909 1.97489,6.93177 9.14154,16.39025 6.78463,8.95431 4.96633,11.90786 -6.89834,11.20532 -13.04246,-0.77228 -21.66788,-5.97688 -27.00965,-16.29769 -3.7556,-7.25618 -4.36682,-20.11087 -1.26954,-26.70005 2.72628,-5.7999 10.98814,-13.71994 18.11866,-17.36902 9.74857,-4.98887 28.06652,-4.42945 39.16815,1.19617 16.67298,8.44884 24.66016,31.76121 18.77103,54.78746 -3.55341,13.89369 -12.55776,26.64681 -24.62119,34.87169 -10.40456,7.09386 -16.64584,9.0102 -30.90066,9.48784 -12.74993,0.42722 -21.61998,-0.96419 -30.12222,-4.72513 l -4.31426,-1.9084 3.45456,5.02204 c 4.72377,6.86715 5.94047,11.63359 5.96282,23.3594 0.0177,9.31191 -0.21186,10.49108 -3.24058,16.64239 -5.74323,11.66444 -15.68854,18.14792 -32.8317,21.40344 -10.97743,2.08464 -41.31287,1.56482 -85.90862,-1.47209 -15.95,-1.08618 -34.4,-2.22345 -41,-2.52729 -22.9695,-1.68107 0.0969,1.27921 10.5,2.85438 50.49962,7.64633 75.189,12.35452 90.24549,17.20952 26.02793,8.39277 42.36462,20.64558 47.28729,35.46633 2.2871,6.88582 1.6718,20.55368 -1.21104,26.90132 -4.31291,9.49645 -12.77828,15.16476 -25.63244,17.16315 -12.0714,1.8767 -19.86817,-0.42806 -25.03257,-7.39971 -2.82884,-3.81878 -3.43877,-13.42717 -1.22099,-19.23435 1.69068,-4.42698 8.41275,-11.52909 10.91215,-11.52909 2.33209,0 4.49279,3.35633 4.82827,7.5 0.31718,3.91778 0.40055,3.99769 4.05564,3.88755 4.46756,-0.13462 6.7682,-1.80981 6.7682,-4.92821 0,-3.83598 -0.98041,-5.23843 -5.83887,-8.35236 -14.59244,-9.35273 -56.72345,-19.85674 -114.75712,-28.611 -13.02238,-1.9644 -24.10028,-3.43056 -24.61755,-3.25813 -0.51727,0.17242 7.88508,2.88805 18.6719,6.03472 33.86922,9.88014 52.82353,17.96925 71.73146,30.61272 17.3512,11.60252 28.86976,25.35198 34.58224,41.28011 2.31466,6.45397 2.63634,8.89544 2.67922,20.3346 0.0411,10.96233 -0.31217,14.0972 -2.25369,20 -6.49463,19.74558 -21.81115,27.9087 -47.57131,25.35368 z m 65.90834,-193.94471 c 7.64277,-1.41285 13.29995,-4.34366 14.50567,-7.51495 2.53372,-6.66417 -0.0431,-12.05509 -6.236,-13.04647 -5.27733,-0.8448 -8.2679,0.18272 -12.31724,4.23207 -6.86843,6.86843 -11.85405,1.85623 -11.26956,-11.32962 0.17676,-3.9875 0.20402,-7.25 0.0606,-7.25 -0.14343,0 -2.37139,1.61106 -4.95102,3.58014 -9.20197,7.02402 -26.08394,14.14724 -42.32707,17.85958 -18.6974,4.27327 -44.73551,6.40322 -82,6.70772 10.48606,0.34668 30.76103,1.74343 45,2.74993 67.92298,4.95626 89.68077,5.83318 99.53462,4.0116 z M 324.47003,444.00135 c -6.444,-7.26242 -7.84437,-9.62394 -7.00464,-11.81225 0.84575,-2.204 40.99503,-38.08818 47.7403,-42.66881 8.80998,-5.98274 19.06669,-10.81843 27.70078,-13.05999 7.04508,-1.82902 9.61116,-1.95017 28.24898,-1.33376 17.20505,0.56902 21.51284,0.41801 26.80152,-0.93957 17.32017,-4.44601 29.19848,-12.20244 29.19848,-19.06635 0,-5.43929 -1.51597,-8.15918 -8.88996,-15.94995 -8.40121,-8.87605 -11.11004,-13.85658 -11.11004,-20.4272 0,-6.50003 1.31504,-10.10987 7.25283,-19.90932 5.96462,-9.84374 5.95976,-9.93935 -1.37705,-27.06024 -2.76219,-6.44572 -5.26951,-13.79451 -5.57182,-16.33064 -0.50882,-4.26861 -0.27145,-4.91908 3.19541,-8.75648 2.05978,-2.27993 8.19633,-7.12766 13.63679,-10.77272 5.44045,-3.64507 11.28558,-8.2149 12.98918,-10.1552 l 3.09746,-3.5278 -2.3614,-1.86779 c -1.29877,-1.02728 -6.81309,-4.63766 -12.25405,-8.02306 -20.33472,-12.65241 -34.05753,-28.97917 -47.06496,-55.99568 -13.8039,-28.67082 -25.161,-40.72325 -43.54239,-46.20829 -24.68669,-7.36656 -57.2281,-6.17637 -107.48178,3.93109 -41.94302,8.43595 -57.83981,10.48707 -81.27777,10.48707 -19.8973,0 -31.68778,-1.09796 -49.00703,-4.56366 -43.01752,-8.60809 -62.451366,-22.082663 -67.719637,-46.953783 -3.368969,-15.90466 -0.332581,-28.75509 9.596668,-40.61449 4.417834,-5.27662 17.932929,-14.86807 20.950259,-14.86807 1.04125,0 2.61459,1.10103 3.49633,2.44673 1.52326,2.32478 1.42214,2.84764 -2.02881,10.49074 -11.758059,26.04147 -7.01949,42.99827 14.97176,53.57592 15.75269,7.57693 39.27639,12.35396 65.00001,13.19974 23.39602,0.76925 37.07933,-0.89629 83.6971,-10.18766 42.26527,-8.42387 65.4004,-10.72028 86.32735,-8.56893 29.69636,3.05287 53.85511,13.16125 68.52832,28.673263 9.0541,9.57168 14.03059,17.93429 23.0567,38.74502 4.82452,11.12348 10.6525,21.04287 14.88633,25.33691 1.74167,1.76645 10.34181,8.24393 19.11141,14.3944 16.28346,11.42023 25.16971,19.72146 29.14036,27.22193 1.77919,3.36087 2.21283,5.85405 2.2305,12.82424 0.0215,8.47213 -0.0614,8.77357 -3.97807,14.47543 -3.4646,5.04371 -17.07123,17.39601 -20.37592,18.49758 -0.79208,0.26402 -0.41197,3.24685 1.2586,9.87648 5.11585,20.3022 4.53038,26.63356 -3.25441,35.19375 -5.9117,6.50054 -7.12827,8.72199 -7.12827,13.01621 0,3.90123 1.46642,6.28714 8.47449,13.78825 8.029,8.59387 10.02849,13.58726 10.0107,25 -0.0132,8.48977 -0.31803,10.07917 -2.86633,14.94634 -6.02522,11.50798 -21.61766,23.27463 -38.11886,28.76594 -7.59981,2.52908 -9.12554,2.67372 -30.5,2.89133 -37.38823,0.38065 -41.96755,2.39923 -83.49205,36.80355 -8.46564,7.01404 -14.85836,11.59284 -16.18542,11.59284 -1.44316,0 -4.18219,-2.2414 -8.00795,-6.55306 z m 482.0681,-0.39587 c -13.76926,-3.28716 -21.38268,-13.45024 -21.38268,-28.54355 0,-13.15697 9.73101,-21.53915 26.85248,-23.13043 12.51257,-1.16292 14.8551,3.34205 5.98085,11.50195 -4.11111,3.78017 -5.16666,5.39059 -5.16666,7.88258 0,4.68859 1.83604,6.23838 7.39068,6.23838 11.91137,0 17.08551,-5.91552 17.08551,-19.53366 0,-9.19231 -3.44748,-13.41942 -12.61211,-15.4643 -12.23351,-2.72964 -27.40516,3.27196 -41.14185,16.27489 -8.49111,8.03754 -8.61139,8.10827 -11.23595,6.60731 -2.45979,-1.40674 -2.63351,-1.94923 -2.38594,-7.45072 0.75526,-16.78354 9.82171,-31.78218 22.97252,-38.00351 17.31333,-8.19052 44.59255,-6.56493 57.8673,3.44835 5.43666,4.10093 10.68973,12.04808 12.92464,19.55314 1.75575,5.89603 1.94411,22.23042 0.34327,29.76928 -3.36046,15.82547 -14.84849,27.3135 -30.67396,30.67396 -5.83863,1.2398 -21.92051,1.34554 -26.8181,0.17633 z M 73.148967,396.62007 c -7.629559,-2.32081 -15.937921,-9.611 -19.799207,-17.37287 -3.25197,-6.53704 -4.439669,-14.5453 -2.586928,-17.44279 2.001593,-3.13028 4.614496,-2.81841 10.540727,1.25812 7.325279,5.0389 14.546248,6.99188 25.851882,6.99188 10.89216,0 17.409479,-1.78141 25.535949,-6.97985 12.9163,-8.26246 18.6724,-16.75573 41.19308,-60.78145 10.19554,-19.93128 20.03399,-38.29889 21.86322,-40.8169 4.68464,-6.4486 18.07012,-19.00467 24.95562,-23.40926 17.19181,-10.99747 39.48926,-15.27911 62.95214,-12.08829 11.14577,1.51576 26.0235,3.94848 31.22114,5.1051 4.5651,1.01587 4.68459,4.30389 0.77009,21.19179 -0.90886,3.92099 -3.65921,4.51673 -12.74585,2.76083 -13.04605,-2.52102 -31.79493,-3.0484 -40.92498,-1.15116 -18.7555,3.89742 -32.74771,12.96745 -44.75431,29.01063 -2.12335,2.83721 -12.30027,20.90856 -22.61537,40.15856 -10.3151,19.25 -20.65859,37.475 -22.98554,40.5 -16.96835,22.05867 -40.79183,34.15726 -66.780565,33.91405 -5.051543,-0.0473 -10.312537,-0.42905 -11.691098,-0.84839 z M 386.5054,359.7891 c -1.18199,-0.7551 -1.67651,-2.54337 -1.46843,-5.31015 0.0652,-0.86651 3.60598,-3.76924 7.86848,-6.45051 10.68425,-6.72081 23.84416,-20.18834 27.98427,-28.63844 8.0958,-16.52377 8.32414,-36.63087 0.59524,-52.41533 -3.47165,-7.09004 -12.58061,-15.70697 -20.54191,-19.43231 -7.90658,-3.69974 -20.1079,-6.85935 -29.61986,-7.67025 -7.83128,-0.66762 -10.16774,-1.99276 -10.16774,-5.76668 0,-3.44017 1.9307,-4.48667 12.17897,-6.60138 11.26841,-2.3252 29.32614,-2.54957 39.06675,-0.4854 20.34186,4.31072 34.20648,17.94618 39.27306,38.62396 2.7137,11.07516 3.01159,28.85669 0.67222,40.12551 -5.53368,26.65588 -24.39831,47.85038 -47.42184,53.27865 -6.65507,1.56906 -16.50375,1.96598 -18.41921,0.74233 z m 417.15005,-29.18761 c -8.69197,-2.16779 -16.21172,-7.60153 -19.53518,-14.11603 -3.08716,-6.05134 -4.45209,-16.7747 -3.14173,-24.68248 4.89726,-29.55403 36.72165,-49.86683 66.95839,-42.73805 8.36204,1.97148 13.10231,4.51157 17.49678,9.37572 10.34963,11.45581 8.10582,34.47496 -4.116,42.22581 -5.90186,3.74285 -9.60593,4.72854 -20.72659,5.51556 -10.7113,0.75804 -13.43567,-0.17988 -13.43567,-4.62553 0,-2.4582 0.96037,-3.57973 5.99012,-6.99537 3.29456,-2.2373 6.70074,-5.442 7.56928,-7.12157 2.08212,-4.02639 2.13878,-8.61553 0.13114,-10.62317 -2.20696,-2.20696 -11.49372,-1.89437 -16.97617,0.57142 -4.52492,2.03512 -11.09917,8.09843 -13.19186,12.16661 -1.95496,3.80043 -2.7481,10.27646 -1.62149,13.23967 1.57463,4.14159 8.25839,9.84559 17.30966,14.77228 6.63599,3.61203 8.34099,5.0082 8.54837,7 0.36993,3.55302 -0.92102,5.00615 -5.36276,6.03651 -4.60694,1.06868 -21.6094,1.06777 -25.89629,-10e-4 z M 55.155441,305.89038 C 44.235601,303.74536 35.777036,299.34366 28.381587,291.95769 17.729458,281.31923 13.740883,269.6001 13.779566,249.05441 c 0.03712,-19.71713 3.996202,-32.03138 13.278352,-41.30077 8.28851,-8.27711 19.047417,-12.2696 33.597523,-12.4676 12.282056,-0.16713 18.359134,3.48986 23.194017,13.95741 3.085602,6.68034 5.21919,22.50569 3.339579,24.77048 -2.420773,2.91685 -5.990378,1.81194 -10.890309,-3.37091 -5.287808,-5.59312 -10.831473,-7.66238 -17.748922,-6.62504 -9.094919,1.36387 -13.911832,7.46352 -15.668823,19.84143 -2.202214,15.51447 2.728971,28.53242 12.747764,33.6531 4.297767,2.19663 6.267344,2.5419 14.5,2.5419 8.859602,0 9.946835,-0.22822 15.526694,-3.25918 9.516269,-5.16921 16.780359,-11.69161 30.338479,-27.24082 16.83621,-19.30871 34.25632,-36.72495 41.81754,-41.80826 21.95494,-14.76003 45.91759,-21.89657 76.84399,-22.88564 25.68658,-0.82149 44.00348,1.73183 69.73726,9.72116 12.28928,3.81534 12.6071,4.54356 7.23992,16.58885 -2.07654,4.66025 -4.59826,8.91351 -5.60384,9.45168 -1.30257,0.69711 -4.63856,0.27615 -11.60084,-1.46388 -14.63655,-3.65801 -27.10741,-5.50402 -43.7725,-6.47945 -25.67928,-1.50305 -43.70305,1.34976 -60.03339,9.50211 -12.73639,6.3582 -18.35318,11.48865 -41.31643,37.7389 -26.00861,29.73153 -31.92842,35.03203 -46.50852,41.64297 -12.755281,5.78352 -31.54214,7.49002 -47.641669,4.32753 z M 415.22879,218.8463 c -6.41279,-1.26131 -10.16645,-6.52722 -10.22702,-14.34723 -0.0687,-8.86534 5.79933,-14.93956 14.4358,-14.94311 9.39471,-0.004 14.70775,5.47441 14.71414,15.17172 0.003,4.65835 -0.4628,6.22773 -2.60412,8.77255 -1.43433,1.70459 -3.34683,3.48686 -4.25,3.96059 -2.24628,1.17821 -9.11411,1.96662 -12.0688,1.38548 z m -50.07334,-3.29189 c -1.1,-1.1 -2,-2.37939 -2,-2.84308 0,-2.31085 8.15321,-25.51747 10.8237,-30.80768 7.37404,-14.60788 21.35922,-21.34924 44.28974,-21.34924 9.11016,0 9.94768,0.16698 11.28525,2.25 2.10015,3.2706 4.78821,13.2813 4.41886,16.45646 -0.34146,2.93543 -0.67102,3.07556 -12.13014,5.15793 -11.40091,2.07179 -27.60278,11.75047 -44.16885,26.38561 -4.20232,3.7125 -8.28812,6.75 -9.07957,6.75 -0.79144,0 -2.33899,-0.9 -3.43899,-2 z M 99.155441,192.95898 c -48.531046,-4.13438 -74.097413,-17.7548 -83.53469,-44.50289 -2.494783,-7.07097 -3.61877,-19.17504 -2.562699,-27.59736 1.334399,-10.64204 4.434347,-18.25453 9.650392,-23.698303 8.537976,-8.91072 18.789422,-12.11442 36.569951,-11.42855 9.465593,0.36512 12.301099,0.86426 16.877046,2.97086 11.148666,5.13244 16.130849,12.266343 16.827701,24.095303 0.556835,9.45218 -0.404741,13.28244 -4.46193,17.77327 -4.634726,5.13008 -11.613917,7.66043 -23.544503,8.53619 -10.328419,0.75815 -13.177629,0.0162 -14.145128,-3.68353 -0.61469,-2.35058 0.828602,-3.92234 9.32386,-10.15379 3.035144,-2.22634 4.6011,-4.16246 4.810577,-5.94773 0.972868,-8.29126 -15.471936,-10.18513 -21.215065,-2.44323 -3.316115,4.47021 -2.947134,16.39229 0.740612,23.92977 8.036159,16.42531 31.123153,24.72533 68.814505,24.73952 22.63644,0.009 43.42471,-3.94437 78.84938,-14.99324 21.56451,-6.72592 40.58778,-11.84512 54.2837,-14.60784 15.36887,-3.10019 35.20251,-3.59049 59.18996,-1.46322 14.64066,1.29838 17.04379,1.94422 17.9317,4.81914 0.73342,2.37472 -3.9411,20.3228 -5.58843,21.45708 -0.72431,0.49873 -4.46693,0.64696 -8.31693,0.32941 -18.02674,-1.48687 -43.61317,-1.79298 -51.16348,-0.61211 -11.59675,1.81374 -31.88196,7.04899 -58.33652,15.05562 -26.28056,7.95396 -46.07097,13.1158 -59.5,15.5191 -8.80718,1.57615 -32.56584,2.66764 -41.500009,1.90653 z"
     id="path2982"
     inkscape:connector-curvature="0"
     sodipodi:nodetypes="cssssssssssssssssssssssccssssssssscssssssssssssssssssscsscsssssssssssssssssssscsssssccsssssssssssscssssssssssssssccsssssssssssssssscsssssssssssssssssssssssssssssssssssssssssssssssssssssssssssssssssssssssscsssssssssssscssssssssssssssssccsssssssssssssssssssssssssssccssssssssssssssssssssssssssscssssssssss" />
  <path
     style="fill:none;stroke:#000000;stroke-width:20;stroke-linecap:round;stroke-linejoin:round;stroke-miterlimit:4;stroke-opacity:1;stroke-dasharray:none"
     d="m -111.56371,-265.75095 c -6.53874,5.48802 -10.8954,13.5078 -11.94049,21.98018 -1.04509,8.47239 1.2321,17.31047 6.24121,24.22295 4.37515,6.03762 10.75659,10.56386 17.851942,12.85534 7.095348,2.29148 14.866427,2.36198 22.048881,0.36019 7.182454,-2.0018 13.759951,-6.04923 18.907195,-11.44374 5.147245,-5.39451 8.866399,-12.11231 10.869964,-19.29427 4.00713,-14.36392 0.950735,-30.27702 -7.049738,-42.8616 -8.000473,-12.58459 -20.635975,-21.90056 -34.619706,-27.08077 -12.690408,-4.7011 -26.627178,-6.12976 -39.946958,-3.73599 -13.31979,2.39377 -25.97432,8.64891 -35.71402,18.04491 -12.72277,12.27381 -20.15084,29.86113 -20.0783,47.53908 0.0725,17.67795 7.64469,35.20372 20.46776,47.3727 l -74.83145,170.637976"
     id="path2989"
     inkscape:path-effect="#path-effect2991"
     inkscape:original-d="m -111.56371,-265.75095 c 12.217439,8.38824 -33.4688,30.55724 -5.69928,46.20313 8.20715,4.62407 15.26519,-70.43465 28.008538,-87.46485 12.743349,-17.03021 -86.495298,22.9624 -75.660978,14.30892 21.66864,-17.30698 0.38946,94.91178 0.38946,94.91178 l -74.83145,170.637976"
     inkscape:connector-curvature="0"
     sodipodi:nodetypes="cssscc" />
</svg>
