<svg class="clickable" xmlns="http://www.w3.org/2000/svg">
  <rect x="1" y="1" width="28" height="28" rx="4" class="rfill stand"/>
  <g
     transform="matrix(0.04552902,0,0,0.04846124,1.0658792,0.450243)"
     style="clip-rule:evenodd;fill-rule:evenodd;image-rendering:optimizeQuality;shape-rendering:geometricPrecision;text-rendering:geometricPrecision">
        <path
           style="fill:#1f1a17"
           id="_78231184"
           class="fil0"
           d="m 374.505,99.6 69.3495,49.524 c 10.4685,3.9915 20.6985,10.272 27.3315,19.5135 L 546.498,223.242 514.6305,386.685 205.5045,521.476 83.8825,306.692 53.5015,150.133 110.854,135.61 c 12.921,-25.455 73.8345,-29.0865 88.506,-21.435 l 60.582,-14.055 c 15.495,-30.7545 98.0265,-26.664 114.563,-0.5205 z" />
        <polygon
           style="fill:#7b0101"
           id="_78794960"
           class="fil1"
           points="95.2905,302.486 210.62,506.156 193.382,348.102 67.4415,158.973 " />
        <path
           style="fill:#7b0101"
           id="_77500208"
           class="fil1"
           d="m 118.309,161.991 2.673,17.4015 -1.8795,-0.732 c 4.305,6.4305 2.7105,10.9575 11.6325,15.354 4.9875,2.4585 13.284,6.87 20.1165,6.87 l 2.5785,-0.024 -3.393,-27.645 -2.3595,-0.906 c -13.272,0 -23.859,-7.827 -30.1635,-15.081 l 0.795,4.7625 z" />
        <path
           style="fill:#7b0101"
           id="_77621680"
           class="fil1"
           d="m 350.084,207.236 c 0.2715,12.2055 16.5345,26.1825 26.1945,26.9865 l 1.587,-29.3685 c -4.749,-1.107 -11.1045,-4.755 -14.754,-7.4715 -5.217,-3.8835 -7.944,-8.976 -10.6455,-10.785 l -0.795,-3.969 -1.587,24.6075 z" />
        <path
           style="fill:#7b0101"
           id="_78135248"
           class="fil1"
           d="m 269.121,135.005 -0.7935,-11.907 0.7935,11.907 0.7935,6.3495 c 7.353,10.9785 8.8725,9.435 20.6385,15.081 l 0,-26.988 c -2.745,-0.639 -10.5405,-4.1415 -12.5775,-5.679 -4.518,-3.408 -6.8835,-7.164 -8.8545,-8.6085 l 0,19.845 z" />
        <path
           style="fill:#7b0101"
           id="_76234600"
           class="fil1"
           d="m 183.396,246.923 1.5885,15.081 0,4.7625 c 1.632,7.008 7.8645,17.553 14.2875,19.05 l -1.5885,-29.3685 -0.7935,-0.7935 c -10.4715,-5.541 -8.565,-7.641 -14.2875,-15.876 l 0.7935,7.1445 z" />
        <polygon
           style="fill:#ad0101"
           id="_77301376"
           class="fil2"
           points="210.62,506.156 504.058,378.204 533.255,228.462 193.382,348.102 " />
        <path
           style="fill:#ad0101"
           id="_78258624"
           class="fil2"
           d="m 197.683,256.447 -0.7935,-0.7935 0.7935,0.7935 1.5885,29.3685 c 4.113,5.616 28.368,11.907 38.8935,11.907 l 3.174,0 c 28.65,0 58.9095,-11.8095 64.2945,-34.926 L 304.84,235.81 c -1.6395,2.358 -1.8465,5.211 -3.7395,7.3725 -2.091,2.388 -3.054,3.3315 -5.1885,5.925 -1.0215,1.242 -11.541,7.767 -13.5375,8.6865 -8.9655,4.1265 -23.538,8.178 -36.273,8.178 l -10.3185,0 c -15.7245,0 -27.816,-4.083 -38.1,-9.525 z" />
        <path
           style="fill:#ad0101"
           id="_77500776"
           class="fil2"
           d="m 462.003,212.791 0.7935,-3.1755 0,-3.1755 0.7935,-3.174 0,-11.1135 c -4.746,3.4785 -6.1455,9.3525 -15.153,12.6285 -5.406,1.9665 -15.558,5.409 -22.1235,5.658 -17.2155,0.654 -35.9805,0.396 -48.4485,-5.586 l -1.587,29.3685 c 5.145,4.473 26.463,6.351 37.305,6.351 l 3.969,0 c 20.5905,0 36.0075,-9.6165 44.451,-22.2255 l 0,-2.382 0,-3.174 z m 1.587,-11.907 0.7935,-3.174 -0.7935,3.174 z" />
        <path
           style="fill:#ad0101"
           id="_78207744"
           class="fil2"
           d="m 223.084,147.703 c -8.1255,11.694 -5.949,11.2725 -19.839,18.2625 -5.658,2.847 -21.5415,7.137 -30.168,7.137 l -18.2565,0 -7.143,-0.7935 2.3595,0.906 3.393,27.645 -2.5785,0.024 21.4185,1.815 0.807,-0.2265 c 6.5055,0 25.9005,-5.421 31.218,-7.677 11.184,-4.746 14.217,-8.5275 20.376,-17.724 l 0.7935,-7.143 -1.0185,-1.026 -0.5685,-6.912 -0.7935,-14.2875 z" />
        <path
           style="fill:#ad0101"
           id="_47303792"
           class="fil2"
           d="m 290.553,129.447 0,26.988 25.3995,3.969 c 8.493,1.3335 26.3595,-2.73 31.8645,-4.6485 11.1045,-3.8655 13.932,-8.121 18.936,-17.577 l -0.6255,-11.826 0.6255,-11.9865 c -6.033,8.6805 -4.4895,7.8585 -14.79,12.993 -3.1485,1.569 -17.6055,5.2635 -21.723,5.2635 l -24.606,0 c -2.124,0 -12.2625,-2.5185 -15.081,-3.1755 z" />
        <path
           style="fill:#ff0101"
           id="_75510104"
           class="fil3"
           d="m 305.634,262.797 c -5.385,23.1165 -35.6445,34.926 -64.2945,34.926 l -3.174,0 c -10.5255,0 -34.7805,-6.291 -38.8935,-11.907 -6.423,-1.497 -12.6555,-12.042 -14.2875,-19.05 l -0.795,-0.7935 -0.7935,-3.969 -1.587,-15.081 -0.7935,-8.7315 0,-3.1755 c 0,-24.243 36.0525,-38.1 61.9125,-38.1 l 10.3185,0 c 18.2655,0 34.101,6.7935 44.2455,15.2865 6.048,5.0625 8.958,10.365 8.9355,21.2265 -0.012,6.333 1.665,25.494 -0.7935,29.3685 z M 182.602,239.778 c 5.7225,8.235 3.816,10.335 14.2875,15.876 l 0.7935,0.7935 c 10.284,5.442 22.3755,9.525 38.1,9.525 l 10.3185,0 c 12.735,0 27.3075,-4.0515 36.273,-8.178 1.9965,-0.9195 12.516,-7.4445 13.5375,-8.6865 2.1345,-2.5935 3.0975,-3.537 5.1885,-5.925 1.893,-2.1615 2.1,-5.0145 3.7395,-7.3725 2.3505,-28.2585 -30.4365,-38.1 -59.532,-38.1 l -6.3495,0 c -10.281,0 -31.2645,7.4565 -38.4285,11.577 -10.8315,6.234 -19.1985,15.231 -17.928,30.4905 z m 169.863,-62.706 -0.795,3.1755 0,2.3805 0.795,3.969 c 2.7015,1.809 5.4285,6.9015 10.6455,10.785 3.6495,2.7165 10.005,6.3645 14.754,7.4715 12.468,5.982 31.233,6.24 48.4485,5.586 6.5655,-0.249 16.7175,-3.6915 22.1235,-5.658 9.0075,-3.276 10.407,-9.15 15.153,-12.6285 0,-8.7315 1.5165,-12.2775 -3.3645,-18.066 -3.2385,-3.84 -8.0805,-7.7955 -12.765,-10.254 -8.151,-4.2765 -25.0245,-9.78 -37.0515,-9.78 l -13.494,0 c -8.9595,0 -20.9745,3.1035 -27.699,5.6385 -10.2285,3.8565 -12.324,8.1555 -16.7505,17.3805 z m 16.668,-66.6645 -1.587,15.8655 -0.246,8.8875 -0.5475,3.018 c -5.004,9.456 -7.8315,13.7115 -18.936,17.577 -5.505,1.9185 -23.3715,5.982 -31.8645,4.6485 l -25.3995,-3.969 c -11.766,-5.646 -13.2855,-4.1025 -20.6385,-15.081 l -0.7935,-6.3495 -0.7935,-11.907 -0.1725,-12.447 -63.3705,14.589 c 10.314,6.0015 16.3005,8.553 19.0935,19.29 l 0.7935,5.556 0.7935,12.699 0,5.556 0,1.5885 -0.7935,7.143 c -6.159,9.1965 -9.192,12.978 -20.376,17.724 -5.3175,2.256 -24.7125,7.677 -31.218,7.677 l -0.807,0.2265 -21.4185,-1.815 c -6.8325,0 -15.129,-4.4115 -20.1165,-6.87 -8.922,-4.3965 -7.3275,-8.9235 -11.6325,-15.354 l -0.7935,-5.5575 -1.5885,-11.112 c -0.2715,-3.261 -0.7935,-1.773 -0.7935,-4.7625 l 0,-3.1755 0,-3.9675 0.339,-3.522 -48.825,12.4095 125.94,189.129 339.873,-119.64 -67.2795,-48.78 -1.5915,18.0285 -0.7935,3.174 0,2.382 -0.7935,3.174 0,3.1755 -0.7935,3.1755 0,3.174 0,2.382 c -8.4435,12.609 -23.8605,22.2255 -44.451,22.2255 l -3.969,0 c -10.842,0 -32.16,-1.878 -37.305,-6.351 -9.66,-0.804 -25.923,-14.781 -26.1945,-26.9865 -2.247,-3.5415 0,-21 0,-26.988 l 0.7935,-2.382 c 3.999,-17.166 25.2825,-25.3995 46.038,-25.3995 l 11.16,-0.291 c 8.52,0.5745 17.0385,2.1435 25.5585,4.392 l -64.5,-46.1595 z m -248.9,32.6085 c -0.9915,1.4445 -1.8915,3.5205 -2.7195,7.0695 l 0,7.143 c 6.3045,7.254 16.8915,15.081 30.1635,15.081 l 7.143,0.7935 18.2565,0 c 8.6265,0 24.51,-4.29 30.168,-7.137 13.89,-6.99 11.7135,-6.5685 19.839,-18.2625 0,-7.029 -4.1145,-11.6985 -9.897,-15.39 -9.597,-6.1245 -26.8815,-9.5985 -44.2905,-9.009 -19.731,0.669 -39.6225,6.555 -48.663,19.7115 z" />
        <path
           style="fill:#ff0101"
           id="_75139072"
           class="fil3"
           d="m 269.121,109.604 0,5.556 c 1.971,1.4445 4.3365,5.2005 8.8545,8.6085 2.037,1.5375 9.8325,5.04 12.5775,5.679 2.8185,0.657 12.957,3.1755 15.081,3.1755 l 24.606,0 c 4.1175,0 18.5745,-3.6945 21.723,-5.2635 10.3005,-5.1345 8.757,-4.3125 14.79,-12.993 0,-4.7595 -1.5105,-8.007 -3.855,-10.434 -9.0075,-9.3225 -27.6435,-12.966 -39.918,-13.425 -13.8345,-0.516 -50.6175,-0.0735 -53.859,19.0965 z" />
      </g>
</svg>
