<svg class="clickable" xmlns="http://www.w3.org/2000/svg">
  <rect x="1" y="1" width="28" height="28" rx="4" class="rfill stand"/>
  <path class="normal" style="fill:#000000;" d="m 21.561187,10.184155 c 0,-0.03232 0,-0.03232 0,-0.03232 C 21.076371,9.5054099 20.494591,8.9559512 19.815848,8.4388133 l 0,0.032323 C 19.266389,8.891311 18.71693,9.3438064 18.199794,9.7963017 17.973545,9.6670167 17.779619,9.5700535 17.585693,9.4730903 17.327124,9.3438064 17.068556,9.2145213 16.777665,9.1498799 16.680695,9.1175569 16.583739,9.0852339 16.486775,9.0852339 16.422135,8.3741695 16.357491,7.6631063 16.260528,6.952042 15.937318,6.887396 15.614106,6.887396 15.258574,6.855073 c -0.09697,0 -0.193926,0 -0.258569,0 -0.09697,0 -0.193925,0 -0.258568,0 -0.323211,0.032323 -0.614101,0.032323 -0.90499,0.096969 -0.09697,0.6787425 -0.161606,1.3898068 -0.193927,2.1008712 -0.129284,0 -0.226248,0.032323 -0.355532,0.064646 -0.03232,0 -0.06465,0 -0.09697,0.032323 -0.258568,0.064646 -0.517136,0.1939264 -0.775704,0.3232103 -0.226249,0.096969 -0.420175,0.1939264 -0.614102,0.3232114 -0.549458,-0.4524953 -1.066595,-0.87267 -1.616054,-1.3251654 0,0 0,0 -0.03232,-0.032323 C 10.022552,8.5357845 9.8932693,8.6327419 9.7963053,8.7297051 9.5700583,8.8913109 9.3761314,9.0852373 9.2145262,9.2791637 8.9236366,9.5377327 8.6973883,9.8609431 8.4388194,10.184155 c 0,0 0,0 0.032323,0 0.4201747,0.549459 0.87267,1.066596 1.325166,1.616054 -0.129285,0.193927 -0.258569,0.420175 -0.355533,0.614101 -0.129285,0.258569 -0.226248,0.549459 -0.2908894,0.808028 -0.064646,0.129284 -0.096969,0.258568 -0.096969,0.355531 -0.7110644,0.06465 -1.4221288,0.129285 -2.1008713,0.226248 -0.064646,0.323211 -0.096969,0.646422 -0.096969,1.001954 0,0.484816 0.032323,0.969632 0.1292839,1.422128 0.6787437,0.06465 1.3574862,0.129284 2.0685505,0.193926 0,0.129284 0.032323,0.258569 0.096969,0.355532 0.064646,0.29089 0.1616049,0.549459 0.2908899,0.840349 0.129284,0.226247 0.2262471,0.452495 0.387853,0.646421 -0.452496,0.549459 -0.9049912,1.066596 -1.3251647,1.616054 0.484816,0.678744 1.0665957,1.260523 1.7453387,1.74534 l 0,-0.03232 c 0.517137,-0.420175 1.066596,-0.87267 1.583733,-1.325166 l 0.03232,0 c 0.161605,0.09697 0.355532,0.193928 0.517136,0.290891 0.290891,0.129284 0.614101,0.258568 0.904991,0.32321 0.129284,0.03232 0.226248,0.06465 0.32321,0.09697 0.06465,0.678743 0.129285,1.389807 0.226249,2.100871 0.290889,0.03232 0.581779,0.06465 0.90499,0.06465 0.06465,0 0.258568,0 0.484817,0 0.355532,0 0.711064,-0.03232 1.066595,-0.09697 0.06465,-0.678742 0.129285,-1.389807 0.193926,-2.10087 0.09697,-0.03232 0.193927,-0.06465 0.29089,-0.09697 l 0,0 c 0.290891,-0.06464 0.549459,-0.161605 0.808028,-0.290889 0.226248,-0.09697 0.452495,-0.226248 0.678743,-0.387854 0,0.03232 0,0.03232 0.03232,0.03232 0.517137,0.452495 1.066596,0.904989 1.616054,1.325164 0.09697,-0.06465 0.193927,-0.129284 0.323212,-0.226247 0.193926,-0.161606 0.387852,-0.355532 0.549458,-0.549459 0.29089,-0.290889 0.58178,-0.614101 0.840348,-0.969633 -0.452495,-0.549459 -0.90499,-1.098917 -1.357486,-1.616054 0,-0.03232 0,-0.03232 0,-0.03232 0.09697,-0.161605 0.193927,-0.355531 0.29089,-0.549457 0.09696,-0.258569 0.226248,-0.517138 0.29089,-0.775707 0,-0.03232 0,-0.06465 0.03232,-0.06465 0,-0.129285 0.03232,-0.226248 0.06465,-0.290891 0.711065,-0.06465 1.422129,-0.129284 2.100872,-0.193926 0.06464,-0.323211 0.06464,-0.646422 0.09697,-0.969632 0,-0.09697 0,-0.193927 0,-0.29089 0,-0.06465 0,-0.161606 0,-0.258569 -0.03232,-0.323212 -0.03232,-0.646422 -0.09697,-0.969633 -0.678743,-0.06465 -1.389807,-0.129284 -2.100872,-0.193927 -0.03232,-0.09697 -0.06465,-0.193926 -0.06465,-0.290889 -0.09697,-0.29089 -0.193927,-0.58178 -0.323212,-0.872669 -0.09697,-0.193927 -0.226247,-0.420175 -0.32321,-0.614102 0.420173,-0.517136 0.872669,-1.066595 1.325164,-1.616054 z m -8.629731,2.682651 c 0.581779,-0.614101 1.292844,-0.904991 2.100871,-0.87267 0.840348,-0.03232 1.519091,0.258569 2.133192,0.87267 0.581779,0.581779 0.872669,1.292843 0.872669,2.10087 0,0.840348 -0.29089,1.519092 -0.872669,2.133192 -0.614101,0.58178 -1.292844,0.87267 -2.133192,0.87267 -0.808027,0 -1.519092,-0.29089 -2.100871,-0.87267 -0.581779,-0.6141 -0.872669,-1.292844 -0.872669,-2.133192 0,-0.808027 0.29089,-1.519091 0.872669,-2.10087 z"/>
          <path class="normal" style="fill:#000000;" d="m 374.505,99.6 69.3495,49.524 c 10.4685,3.9915 20.6985,10.272 27.3315,19.5135 L 546.498,223.242 514.6305,386.685 205.5045,521.476 83.8825,306.692 53.5015,150.133 110.854,135.61 c 12.921,-25.455 73.8345,-29.0865 88.506,-21.435 l 60.582,-14.055 c 15.495,-30.7545 98.0265,-26.664 114.563,-0.5205 z" />
          <path class="normal" style="fill:#000000;" d="M 210.62,506.156 193.382,348.102 67.4415,158.973 95.2905,302.486 Z"
          <path class="normal" style="fill:#000000;" d="m 118.309,161.991 2.673,17.4015 -1.8795,-0.732 c 4.305,6.4305 2.7105,10.9575 11.6325,15.354 4.9875,2.4585 13.284,6.87 20.1165,6.87 l 2.5785,-0.024 -3.393,-27.645 -2.3595,-0.906 c -13.272,0 -23.859,-7.827 -30.1635,-15.081 l 0.795,4.7625 z" />
          <path class="normal" style="fill:#000000;" d="m 350.084,207.236 c 0.2715,12.2055 16.5345,26.1825 26.1945,26.9865 l 1.587,-29.3685 c -4.749,-1.107 -11.1045,-4.755 -14.754,-7.4715 -5.217,-3.8835 -7.944,-8.976 -10.6455,-10.785 l -0.795,-3.969 -1.587,24.6075 z" />
          <path class="normal" style="fill:#000000;" d="m 269.121,135.005 -0.7935,-11.907 0.7935,11.907 0.7935,6.3495 c 7.353,10.9785 8.8725,9.435 20.6385,15.081 l 0,-26.988 c -2.745,-0.639 -10.5405,-4.1415 -12.5775,-5.679 -4.518,-3.408 -6.8835,-7.164 -8.8545,-8.6085 l 0,19.845 z" />
          <path class="normal" style="fill:#000000;" d="m 183.396,246.923 1.5885,15.081 0,4.7625 c 1.632,7.008 7.8645,17.553 14.2875,19.05 l -1.5885,-29.3685 -0.7935,-0.7935 c -10.4715,-5.541 -8.565,-7.641 -14.2875,-15.876 l 0.7935,7.1445 z" />
          <path class="normal" style="fill:#000000;" d="M 504.058,378.204 533.255,228.462 193.382,348.102 210.62,506.156 Z">
          <path class="normal" style="fill:#000000;" d="m 197.683,256.447 -0.7935,-0.7935 0.7935,0.7935 1.5885,29.3685 c 4.113,5.616 28.368,11.907 38.8935,11.907 l 3.174,0 c 28.65,0 58.9095,-11.8095 64.2945,-34.926 L 304.84,235.81 c -1.6395,2.358 -1.8465,5.211 -3.7395,7.3725 -2.091,2.388 -3.054,3.3315 -5.1885,5.925 -1.0215,1.242 -11.541,7.767 -13.5375,8.6865 -8.9655,4.1265 -23.538,8.178 -36.273,8.178 l -10.3185,0 c -15.7245,0 -27.816,-4.083 -38.1,-9.525 z" />
          <path class="normal" style="fill:#000000;" d="m 462.003,212.791 0.7935,-3.1755 0,-3.1755 0.7935,-3.174 0,-11.1135 c -4.746,3.4785 -6.1455,9.3525 -15.153,12.6285 -5.406,1.9665 -15.558,5.409 -22.1235,5.658 -17.2155,0.654 -35.9805,0.396 -48.4485,-5.586 l -1.587,29.3685 c 5.145,4.473 26.463,6.351 37.305,6.351 l 3.969,0 c 20.5905,0 36.0075,-9.6165 44.451,-22.2255 l 0,-2.382 0,-3.174 z m 1.587,-11.907 0.7935,-3.174 -0.7935,3.174 z" />
          <path class="normal" style="fill:#000000;" d="m 223.084,147.703 c -8.1255,11.694 -5.949,11.2725 -19.839,18.2625 -5.658,2.847 -21.5415,7.137 -30.168,7.137 l -18.2565,0 -7.143,-0.7935 2.3595,0.906 3.393,27.645 -2.5785,0.024 21.4185,1.815 0.807,-0.2265 c 6.5055,0 25.9005,-5.421 31.218,-7.677 11.184,-4.746 14.217,-8.5275 20.376,-17.724 l 0.7935,-7.143 -1.0185,-1.026 -0.5685,-6.912 -0.7935,-14.2875 z" />
          <path class="normal" style="fill:#000000;" d="m 290.553,129.447 0,26.988 25.3995,3.969 c 8.493,1.3335 26.3595,-2.73 31.8645,-4.6485 11.1045,-3.8655 13.932,-8.121 18.936,-17.577 l -0.6255,-11.826 0.6255,-11.9865 c -6.033,8.6805 -4.4895,7.8585 -14.79,12.993 -3.1485,1.569 -17.6055,5.2635 -21.723,5.2635 l -24.606,0 c -2.124,0 -12.2625,-2.5185 -15.081,-3.1755 z" />
          <path class="normal" style="fill:#000000;" d="m 305.634,262.797 c -5.385,23.1165 -35.6445,34.926 -64.2945,34.926 l -3.174,0 c -10.5255,0 -34.7805,-6.291 -38.8935,-11.907 -6.423,-1.497 -12.6555,-12.042 -14.2875,-19.05 l -0.795,-0.7935 -0.7935,-3.969 -1.587,-15.081 -0.7935,-8.7315 0,-3.1755 c 0,-24.243 36.0525,-38.1 61.9125,-38.1 l 10.3185,0 c 18.2655,0 34.101,6.7935 44.2455,15.2865 6.048,5.0625 8.958,10.365 8.9355,21.2265 -0.012,6.333 1.665,25.494 -0.7935,29.3685 z M 182.602,239.778 c 5.7225,8.235 3.816,10.335 14.2875,15.876 l 0.7935,0.7935 c 10.284,5.442 22.3755,9.525 38.1,9.525 l 10.3185,0 c 12.735,0 27.3075,-4.0515 36.273,-8.178 1.9965,-0.9195 12.516,-7.4445 13.5375,-8.6865 2.1345,-2.5935 3.0975,-3.537 5.1885,-5.925 1.893,-2.1615 2.1,-5.0145 3.7395,-7.3725 2.3505,-28.2585 -30.4365,-38.1 -59.532,-38.1 l -6.3495,0 c -10.281,0 -31.2645,7.4565 -38.4285,11.577 -10.8315,6.234 -19.1985,15.231 -17.928,30.4905 z m 169.863,-62.706 -0.795,3.1755 0,2.3805 0.795,3.969 c 2.7015,1.809 5.4285,6.9015 10.6455,10.785 3.6495,2.7165 10.005,6.3645 14.754,7.4715 12.468,5.982 31.233,6.24 48.4485,5.586 6.5655,-0.249 16.7175,-3.6915 22.1235,-5.658 9.0075,-3.276 10.407,-9.15 15.153,-12.6285 0,-8.7315 1.5165,-12.2775 -3.3645,-18.066 -3.2385,-3.84 -8.0805,-7.7955 -12.765,-10.254 -8.151,-4.2765 -25.0245,-9.78 -37.0515,-9.78 l -13.494,0 c -8.9595,0 -20.9745,3.1035 -27.699,5.6385 -10.2285,3.8565 -12.324,8.1555 -16.7505,17.3805 z m 16.668,-66.6645 -1.587,15.8655 -0.246,8.8875 -0.5475,3.018 c -5.004,9.456 -7.8315,13.7115 -18.936,17.577 -5.505,1.9185 -23.3715,5.982 -31.8645,4.6485 l -25.3995,-3.969 c -11.766,-5.646 -13.2855,-4.1025 -20.6385,-15.081 l -0.7935,-6.3495 -0.7935,-11.907 -0.1725,-12.447 -63.3705,14.589 c 10.314,6.0015 16.3005,8.553 19.0935,19.29 l 0.7935,5.556 0.7935,12.699 0,5.556 0,1.5885 -0.7935,7.143 c -6.159,9.1965 -9.192,12.978 -20.376,17.724 -5.3175,2.256 -24.7125,7.677 -31.218,7.677 l -0.807,0.2265 -21.4185,-1.815 c -6.8325,0 -15.129,-4.4115 -20.1165,-6.87 -8.922,-4.3965 -7.3275,-8.9235 -11.6325,-15.354 l -0.7935,-5.5575 -1.5885,-11.112 c -0.2715,-3.261 -0.7935,-1.773 -0.7935,-4.7625 l 0,-3.1755 0,-3.9675 0.339,-3.522 -48.825,12.4095 125.94,189.129 339.873,-119.64 -67.2795,-48.78 -1.5915,18.0285 -0.7935,3.174 0,2.382 -0.7935,3.174 0,3.1755 -0.7935,3.1755 0,3.174 0,2.382 c -8.4435,12.609 -23.8605,22.2255 -44.451,22.2255 l -3.969,0 c -10.842,0 -32.16,-1.878 -37.305,-6.351 -9.66,-0.804 -25.923,-14.781 -26.1945,-26.9865 -2.247,-3.5415 0,-21 0,-26.988 l 0.7935,-2.382 c 3.999,-17.166 25.2825,-25.3995 46.038,-25.3995 l 11.16,-0.291 c 8.52,0.5745 17.0385,2.1435 25.5585,4.392 l -64.5,-46.1595 z m -248.9,32.6085 c -0.9915,1.4445 -1.8915,3.5205 -2.7195,7.0695 l 0,7.143 c 6.3045,7.254 16.8915,15.081 30.1635,15.081 l 7.143,0.7935 18.2565,0 c 8.6265,0 24.51,-4.29 30.168,-7.137 13.89,-6.99 11.7135,-6.5685 19.839,-18.2625 0,-7.029 -4.1145,-11.6985 -9.897,-15.39 -9.597,-6.1245 -26.8815,-9.5985 -44.2905,-9.009 -19.731,0.669 -39.6225,6.555 -48.663,19.7115 z" />
          <path class="normal" style="fill:#000000;" d="m 269.121,109.604 0,5.556 c 1.971,1.4445 4.3365,5.2005 8.8545,8.6085 2.037,1.5375 9.8325,5.04 12.5775,5.679 2.8185,0.657 12.957,3.1755 15.081,3.1755 l 24.606,0 c 4.1175,0 18.5745,-3.6945 21.723,-5.2635 10.3005,-5.1345 8.757,-4.3125 14.79,-12.993 0,-4.7595 -1.5105,-8.007 -3.855,-10.434 -9.0075,-9.3225 -27.6435,-12.966 -39.918,-13.425 -13.8345,-0.516 -50.6175,-0.0735 -53.859,19.0965 z" />
</svg>
