<svg class="clickable" xmlns="http://www.w3.org/2000/svg">
  <rect x="1" y="1" width="28" height="28" rx="4" class="rfill stand"/>
  <path transform="scale(0.8) translate(-51,-9)"  class="normal" d="m 69.378704,39.269882 -0.976562,0 -0.0098,-2.939453 q -1.025391,-0.01953 -2.050781,-0.234375 -1.025391,-0.224609 -2.060547,-0.664062 l 0,-1.757813 q 0.996094,0.625 2.011719,0.947266 1.02539,0.3125 2.109375,0.322265 l 0,-4.453125 q -2.158204,-0.351562 -3.144532,-1.191406 -0.976562,-0.839844 -0.976562,-2.304687 0,-1.591797 1.064453,-2.509766 1.064453,-0.917969 3.056641,-1.054688 l 0,-2.294921 0.976562,0 0,2.265625 q 0.908203,0.03906 1.757813,0.195312 0.849609,0.146484 1.660156,0.410156 l 0,1.708985 Q 71.986126,25.305038 71.126751,25.080429 70.277142,24.85582 69.378704,24.816757 l 0,4.169922 q 2.216797,0.341797 3.261719,1.220703 1.044922,0.878906 1.044922,2.402344 0,1.650391 -1.113282,2.607422 -1.103515,0.947265 -3.193359,1.09375 l 0,2.958984 z m -0.976562,-10.458984 0,-4.003906 q -1.132813,0.126953 -1.728516,0.644531 -0.595703,0.517578 -0.595703,1.376953 0,0.839844 0.546875,1.308594 0.55664,0.46875 1.777344,0.673828 z m 0.976562,1.875 0,4.228515 q 1.240234,-0.166015 1.865234,-0.703125 0.634766,-0.537109 0.634766,-1.416015 0,-0.859375 -0.605469,-1.367188 -0.595703,-0.507812 -1.894531,-0.742187 z m -8.15465,-2.502013 -0.734542,0 -0.0074,-2.210971 q -0.771269,-0.01469 -1.542538,-0.17629 -0.771269,-0.168945 -1.549883,-0.499488 l 0,-1.322176 q 0.749233,0.470107 1.513156,0.712506 0.771269,0.235053 1.586611,0.242398 l 0,-3.349511 q -1.623338,-0.264435 -2.365226,-0.896141 -0.734541,-0.631706 -0.734541,-1.733518 0,-1.197304 0.80065,-1.887773 0.800651,-0.69047 2.299117,-0.793306 l 0,-1.726172 0.734541,0 0,1.704137 q 0.683124,0.02938 1.322176,0.146908 0.639051,0.110181 1.248721,0.308507 l 0,1.285449 q -0.609644,-0.308508 -1.256041,-0.477453 -0.639051,-0.168944 -1.31483,-0.198326 l 0,3.136494 q 1.66741,0.25709 2.45337,0.918177 0.78596,0.661088 0.78596,1.806973 0,1.241376 -0.837379,1.961227 -0.830031,0.712505 -2.401951,0.822687 l 0,2.225662 z m -0.734542,-7.866943 0,-3.011622 q -0.852069,0.09549 -1.300139,0.484797 -0.448071,0.389308 -0.448071,1.035704 0,0.631707 0.411344,0.984287 0.418688,0.35258 1.336866,0.506834 z m 0.734542,1.41032 0,3.180566 q 0.932868,-0.124872 1.402975,-0.52887 0.477452,-0.403998 0.477452,-1.065086 0,-0.646396 -0.455416,-1.028359 -0.448071,-0.381961 -1.425011,-0.558251 z m 17.183516,8.718098 -0.847484,0 -0.0085,-2.55093 q -0.889859,-0.01695 -1.779718,-0.203396 -0.889859,-0.194921 -1.788193,-0.576289 l 0,-1.525473 q 0.864435,0.54239 1.745819,0.82206 0.889858,0.271195 1.830567,0.27967 l 0,-3.864531 q -1.872942,-0.305094 -2.728902,-1.033932 -0.847484,-0.728837 -0.847484,-2.000063 0,-1.381401 0.923758,-2.178037 0.923759,-0.796636 2.652628,-0.915284 l 0,-1.991588 0.847485,0 0,1.966165 q 0.78816,0.0339 1.525473,0.169496 0.737311,0.127122 1.440724,0.355943 l 0,1.483099 q -0.703383,-0.355944 -1.44917,-0.550865 -0.737311,-0.194921 -1.516998,-0.228821 l 0,3.61876 q 1.923791,0.29662 2.8306,1.059356 0.906808,0.762736 0.906808,2.084813 0,1.43225 -0.966133,2.262785 -0.957657,0.82206 -2.771275,0.949183 l 0,2.567879 z m -0.847484,-9.076563 0,-3.474687 q -0.983083,0.110173 -1.500049,0.559339 -0.516965,0.449167 -0.516965,1.194954 0,0.728837 0.474591,1.13563 0.483066,0.406793 1.542423,0.584764 z m 0.847484,1.627171 0,3.669609 q 1.076305,-0.144072 1.618696,-0.610189 0.550865,-0.466116 0.550865,-1.228853 0,-0.745786 -0.525441,-1.186479 -0.516965,-0.440691 -1.64412,-0.644088 z"/>
  <circle cx="28" cy="27" r="9" class="rfill stand"/>
  <text transform="translate(28,31)" class="small">s</text>
</svg>
